<svg xmlns="http://www.w3.org/2000/svg" viewBox="0 0 362.73 113.62" role="img" aria-label="Overture"><g fill="white" transform="translate(0 91.70) scale(1 -1)"><path d="M60.74 61.08 Q65.33 56.30 67.92 49.54 Q70.51 42.77 70.51 34.57 Q70.51 26.32 67.87 19.58 Q65.23 12.84 60.55 8.11 Q56.01 3.42 50.00 0.88 Q43.99 -1.66 37.21 -1.66 Q29.98 -1.66 23.85 1.05 Q17.72 3.76 13.33 8.59 Q8.94 13.33 6.42 20.09 Q3.91 26.86 3.91 34.57 Q3.91 43.02 6.54 49.63 Q9.18 56.25 13.82 61.08 Q18.41 65.87 24.49 68.41 Q30.57 70.95 37.21 70.95 Q44.09 70.95 50.20 68.36 Q56.30 65.77 60.74 61.08 Z M53.47 11.96 Q56.20 16.41 57.45 22.02 Q58.69 27.64 58.69 34.57 Q58.69 41.70 57.30 47.66 Q55.91 53.61 53.22 57.81 Q50.54 61.96 46.48 64.28 Q42.43 66.60 37.21 66.60 Q31.35 66.60 27.25 63.92 Q23.14 61.23 20.56 56.74 Q18.12 52.44 16.92 46.68 Q15.72 40.92 15.72 34.57 Q15.72 27.54 16.99 21.88 Q18.26 16.21 21.00 11.82 Q23.63 7.52 27.64 5.10 Q31.64 2.69 37.21 2.69 Q42.43 2.69 46.63 5.13 Q50.83 7.57 53.47 11.96 Z"/><path d="M120.99 45.17 Q118.79 44.78 116.81 43.58 Q114.84 42.38 113.42 39.36 Q110.54 32.81 107.46 25.71 Q104.39 18.60 101.07 10.79 Q100.09 8.54 98.99 5.47 Q97.89 2.39 96.96 -0.44 L93.16 -0.44 Q88.52 11.04 84.61 20.48 Q80.71 29.93 76.51 39.84 Q75.53 42.09 73.36 43.33 Q71.18 44.58 68.99 44.92 L68.99 48.14 L91.25 48.14 L91.25 44.73 Q89.79 44.68 87.59 44.12 Q85.39 43.55 85.39 42.58 Q85.39 42.43 85.64 41.82 Q85.88 41.21 86.12 40.43 Q88.13 35.45 91.79 26.51 Q95.45 17.58 97.75 12.11 Q99.50 16.31 102.17 22.56 Q104.83 28.81 107.90 36.52 Q108.39 37.84 108.83 38.99 Q109.27 40.14 109.27 41.31 Q109.27 42.14 108.46 42.80 Q107.66 43.46 106.54 43.95 Q105.41 44.43 104.34 44.68 Q103.26 44.92 102.58 45.02 L102.58 48.14 L120.99 48.14 Z"/><path d="M161.36 11.33 Q158.33 5.57 153.26 2.15 Q148.18 -1.27 141.59 -1.27 Q135.78 -1.27 131.41 0.78 Q127.04 2.83 124.20 6.35 Q121.37 9.86 119.98 14.55 Q118.59 19.24 118.59 24.46 Q118.59 29.15 120.08 33.67 Q121.57 38.18 124.45 41.80 Q127.23 45.26 131.36 47.39 Q135.48 49.51 140.61 49.51 Q145.88 49.51 149.64 47.85 Q153.40 46.19 155.75 43.31 Q157.99 40.58 159.09 36.87 Q160.19 33.15 160.19 28.81 L160.19 25.59 L128.30 25.59 Q128.30 20.85 129.21 16.99 Q130.11 13.13 132.06 10.21 Q133.97 7.37 137.04 5.74 Q140.12 4.10 144.37 4.10 Q148.71 4.10 151.86 6.13 Q155.01 8.15 157.94 13.43 Z M150.57 29.69 Q150.57 32.42 150.11 35.55 Q149.64 38.67 148.62 40.77 Q147.49 43.02 145.54 44.43 Q143.59 45.85 140.51 45.85 Q135.38 45.85 131.99 41.58 Q128.60 37.30 128.30 29.69 Z"/><path d="M199.29 41.94 Q199.29 39.45 198.07 37.52 Q196.85 35.60 194.31 35.60 Q191.58 35.60 190.14 37.01 Q188.70 38.43 188.70 40.14 Q188.70 41.21 188.87 42.09 Q189.04 42.97 189.19 43.85 Q186.89 43.85 183.81 41.99 Q180.74 40.14 178.59 36.72 L178.59 8.69 Q178.59 6.98 179.25 5.91 Q179.91 4.83 181.32 4.30 Q182.54 3.81 184.47 3.56 Q186.40 3.32 187.82 3.22 L187.82 0.00 L162.43 0.00 L162.43 3.22 Q163.55 3.32 164.75 3.42 Q165.94 3.52 166.82 3.81 Q168.19 4.25 168.85 5.35 Q169.51 6.45 169.51 8.20 L169.51 37.94 Q169.51 39.45 168.80 40.92 Q168.09 42.38 166.82 43.26 Q165.89 43.85 164.62 44.12 Q163.36 44.38 161.89 44.48 L161.89 47.66 L177.91 48.73 L178.59 48.05 L178.59 41.26 L178.83 41.26 Q181.86 45.21 185.57 47.27 Q189.28 49.32 192.36 49.32 Q195.44 49.32 197.36 47.31 Q199.29 45.31 199.29 41.94 Z"/><path d="M228.63 2.10 Q225.46 0.78 222.62 -0.12 Q219.79 -1.03 215.69 -1.03 Q209.64 -1.03 207.17 2.03 Q204.71 5.08 204.71 10.64 L204.71 43.26 L196.01 43.26 L196.01 47.95 L204.90 47.95 L204.90 62.94 L213.79 62.94 L213.79 47.95 L227.61 47.95 L227.61 43.26 L213.88 43.26 L213.88 16.36 Q213.88 13.33 214.10 11.30 Q214.32 9.28 215.15 7.76 Q215.94 6.35 217.50 5.62 Q219.06 4.88 221.70 4.88 Q222.92 4.88 225.29 5.10 Q227.65 5.32 228.63 5.66 Z"/><path d="M280.53 0.88 L264.85 -0.20 L264.12 0.49 L264.12 6.59 L263.83 6.59 Q262.66 5.37 261.19 3.98 Q259.73 2.59 257.82 1.46 Q255.62 0.15 253.57 -0.54 Q251.52 -1.22 247.76 -1.22 Q241.37 -1.22 238.02 2.95 Q234.68 7.13 234.68 15.09 L234.68 38.13 Q234.68 39.89 234.02 41.09 Q233.36 42.29 232.09 43.16 Q231.21 43.75 229.89 44.02 Q228.57 44.29 227.11 44.38 L227.11 47.56 L243.17 48.73 L243.91 48.05 L243.91 14.60 Q243.91 9.38 246.25 6.74 Q248.59 4.10 251.87 4.10 Q254.55 4.10 256.65 4.93 Q258.75 5.76 260.17 6.88 Q261.48 7.91 262.49 9.06 Q263.49 10.21 264.02 11.18 L264.02 38.48 Q264.02 40.09 263.34 41.33 Q262.66 42.58 261.44 43.46 Q260.56 44.04 258.82 44.17 Q257.09 44.29 254.94 44.38 L254.94 47.56 L272.42 48.73 L273.15 48.05 L273.15 9.81 Q273.15 8.15 273.84 6.98 Q274.52 5.81 275.74 4.98 Q276.62 4.44 277.84 4.27 Q279.06 4.10 280.53 4.05 Z"/><path d="M318.80 41.94 Q318.80 39.45 317.58 37.52 Q316.36 35.60 313.82 35.60 Q311.09 35.60 309.65 37.01 Q308.21 38.43 308.21 40.14 Q308.21 41.21 308.38 42.09 Q308.55 42.97 308.69 43.85 Q306.40 43.85 303.32 41.99 Q300.25 40.14 298.10 36.72 L298.10 8.69 Q298.10 6.98 298.76 5.91 Q299.42 4.83 300.83 4.30 Q302.05 3.81 303.98 3.56 Q305.91 3.32 307.33 3.22 L307.33 0.00 L281.94 0.00 L281.94 3.22 Q283.06 3.32 284.25 3.42 Q285.45 3.52 286.33 3.81 Q287.70 4.25 288.36 5.35 Q289.02 6.45 289.02 8.20 L289.02 37.94 Q289.02 39.45 288.31 40.92 Q287.60 42.38 286.33 43.26 Q285.40 43.85 284.13 44.12 Q282.86 44.38 281.40 44.48 L281.40 47.66 L297.41 48.73 L298.10 48.05 L298.10 41.26 L298.34 41.26 Q301.37 45.21 305.08 47.27 Q308.79 49.32 311.87 49.32 Q314.94 49.32 316.87 47.31 Q318.80 45.31 318.80 41.94 Z"/><path d="M361.18 11.33 Q358.15 5.57 353.07 2.15 Q347.99 -1.27 341.40 -1.27 Q335.59 -1.27 331.22 0.78 Q326.85 2.83 324.02 6.35 Q321.19 9.86 319.79 14.55 Q318.40 19.24 318.40 24.46 Q318.40 29.15 319.89 33.67 Q321.38 38.18 324.26 41.80 Q327.04 45.26 331.17 47.39 Q335.30 49.51 340.42 49.51 Q345.70 49.51 349.46 47.85 Q353.22 46.19 355.56 43.31 Q357.81 40.58 358.91 36.87 Q360.00 33.15 360.00 28.81 L360.00 25.59 L328.12 25.59 Q328.12 20.85 329.02 16.99 Q329.93 13.13 331.88 10.21 Q333.78 7.37 336.86 5.74 Q339.94 4.10 344.18 4.10 Q348.53 4.10 351.68 6.13 Q354.83 8.15 357.76 13.43 Z M350.38 29.69 Q350.38 32.42 349.92 35.55 Q349.46 38.67 348.43 40.77 Q347.31 43.02 345.36 44.43 Q343.40 45.85 340.33 45.85 Q335.20 45.85 331.81 41.58 Q328.41 37.30 328.12 29.69 Z"/></g></svg>
